<svg width="142" height="24" viewBox="0 0 142 24" fill="none" xmlns="http://www.w3.org/2000/svg">
<path d="M141 5H137V21H141V5Z" fill="#333333"/>
<path d="M118 21H123.566C125.67 21 127.688 20.1571 129.176 18.6569C130.664 17.1566 131.5 15.1217 131.5 13C131.5 10.8783 130.664 8.84344 129.176 7.34315C127.688 5.84285 125.67 5 123.566 5H118V21ZM121.577 17.7097V8.29032H123.566C126.228 8.29032 128.045 10.429 128.045 13C128.045 15.571 126.238 17.7097 123.566 17.7097H121.577Z" fill="#333333"/>
<path d="M102 21H113V17.5H106V5H102V21Z" fill="#333333"/>
<path d="M87.4818 15.6507L89.0131 12.3525L90.5444 15.6507H87.4818ZM81 21H84.838L86.0061 18.5502H91.9939L93.162 21H97L89.0131 5L81 21Z" fill="#333333"/>
<path d="M72.4984 21L80 5H76.0137L72.4984 12.9091L68.9831 5H65L72.4984 21Z" fill="#333333"/>
<path d="M60 5H56V21H60V5Z" fill="#333333"/>
<path d="M43.5015 21L50.9999 5H47.0168L43.5015 12.9091L39.9862 5H35.9999L43.5015 21Z" fill="#333333"/>
<path d="M11.9999 23.9999C17.2585 23.9999 20.1807 23.9999 22.0903 22.0903C23.9999 20.1807 23.9999 17.2585 23.9999 11.9999C23.9999 6.74138 23.9999 3.81915 22.0903 1.90957C20.1807 0 17.2585 0 11.9999 0C6.74138 0 3.81554 0 1.90958 1.90957C0.00361653 3.81915 0 6.74138 0 11.9999C0 17.2585 -1.72454e-07 20.1807 1.90958 22.0903C3.81915 23.9999 6.74138 23.9999 11.9999 23.9999Z" fill="#EF3939"/>
<path d="M19.802 7.55939C19.2227 6.51485 18.2262 5.65955 17.2881 4.92006C16.3499 4.18057 15.429 3.73504 14.2779 3.41556C13.1268 3.09609 11.9504 3.102 10.7653 3.25221C9.58009 3.40242 8.56036 3.67293 7.52539 4.26947C6.49042 4.86601 5.68656 5.59642 4.96269 6.54655C4.23882 7.49668 3.75785 8.44019 3.45761 9.59621C3.15737 10.7522 3.04857 12.033 3.21864 13.2151C3.3887 14.3973 3.59525 15.5223 4.20919 16.5469L4.25981 16.6336L8.48708 23.9617C9.18862 23.981 9.94801 23.9894 10.7653 23.987H11.9658C13.8828 24.0282 15.8007 23.9715 17.7119 23.8171C19.6248 23.6074 20.9989 23.1374 22.0512 22.0782C23.5989 20.5308 23.8919 18.3183 23.9461 14.7392L19.802 7.55939Z" fill="url(#paint0_linear)"/>
<path d="M18.357 5.63297C17.0983 4.37517 15.495 3.51886 13.7499 3.17229C12.0047 2.82572 10.196 3.00445 8.55243 3.68589C6.90881 4.36733 5.50407 5.52088 4.51577 7.00073C3.52747 8.48058 2.99999 10.2203 2.99999 11.9999C2.99999 13.7796 3.52747 15.5193 4.51577 16.9992C5.50407 18.479 6.90881 19.6326 8.55243 20.314C10.196 20.9954 12.0047 21.1742 13.7499 20.8276C15.495 20.481 17.0983 19.6247 18.357 18.3669C19.1947 17.5318 19.8594 16.5395 20.3129 15.4469C20.7664 14.3543 20.9999 13.183 20.9999 11.9999C20.9999 10.8169 20.7664 9.64554 20.3129 8.55296C19.8594 7.46037 19.1947 6.46808 18.357 5.63297V5.63297ZM17.8175 9.77621C16.3329 12.3597 14.8496 14.942 13.3675 17.5231C13.2506 17.7519 13.0764 17.9466 12.8619 18.0881C12.6475 18.2296 12.4 18.3132 12.1437 18.3307C11.8607 18.3623 11.5748 18.3077 11.3234 18.1739C11.0721 18.0401 10.867 17.8334 10.7352 17.581C9.7974 15.9657 8.86685 14.3396 7.9363 12.717C7.36663 11.7319 6.79937 10.7444 6.23452 9.75448C6.10043 9.53221 6.02649 9.27885 6.01996 9.01933C6.01343 8.75981 6.07454 8.50305 6.19728 8.27431C6.32002 8.04557 6.50017 7.85273 6.72001 7.71473C6.93985 7.57674 7.19181 7.49836 7.45111 7.48729C7.73024 7.47017 8.00836 7.53424 8.25187 7.67178C8.49539 7.80931 8.69389 8.01442 8.8234 8.26234C9.24341 8.98668 9.65618 9.71102 10.069 10.4354C10.3695 10.9569 10.6591 11.4784 10.9669 11.9927C11.1626 12.3481 11.4467 12.6469 11.7918 12.8602C12.137 13.0734 12.5313 13.1937 12.9366 13.2096C13.5522 13.2477 14.1588 13.0475 14.6307 12.6503C15.1026 12.2531 15.4035 11.6896 15.4712 11.0764C15.4712 10.9786 15.4712 10.8808 15.4929 10.8301C15.4951 10.4426 15.4083 10.0598 15.2395 9.71102C15.1359 9.51892 15.0757 9.30649 15.0629 9.08862C15.0501 8.87076 15.0852 8.65274 15.1656 8.44987C15.246 8.24699 15.3699 8.06418 15.5284 7.91425C15.687 7.76432 15.8764 7.65092 16.0834 7.58198C16.2904 7.51305 16.51 7.49026 16.7268 7.51522C16.9435 7.54018 17.1522 7.61228 17.3381 7.72646C17.5241 7.84064 17.6828 7.99414 17.8031 8.17618C17.9234 8.35822 18.0025 8.5644 18.0347 8.78024C18.0755 9.12718 17.999 9.47779 17.8175 9.77621V9.77621Z" fill="white"/>
<defs>
<linearGradient id="paint0_linear" x1="7.4818" y1="4.22253" x2="18.9406" y2="24.0763" gradientUnits="userSpaceOnUse">
<stop stop-opacity="0.2"/>
<stop offset="0.79" stop-opacity="0.05"/>
</linearGradient>
</defs>
</svg>
